<svg xmlns="http://www.w3.org/2000/svg" viewBox="0 0 480 320" width="480" height="320" role="img" aria-label="A constellation over a city skyline">
  <defs>
    <linearGradient id="sky" x1="0" y1="0" x2="0" y2="1">
      <stop offset="0" stop-color="#040b1c" />
      <stop offset="1" stop-color="#112c52" />
    </linearGradient>
    <radialGradient id="cityGlow" cx="0.5" cy="1">
      <stop offset="0" stop-color="#38bdf8" stop-opacity="0.3" />
      <stop offset="1" stop-color="#38bdf8" stop-opacity="0" />
    </radialGradient>
    <filter id="starGlow" x="-70%" y="-70%" width="240%" height="240%">
      <feGaussianBlur stdDeviation="3.5" />
    </filter>
  </defs>

  <rect width="480" height="320" fill="url(#sky)" />
  <circle cx="473.38" cy="120.39" r="2.03" fill="#e2e8f0" opacity="0.66" />
  <circle cx="144.75" cy="9.77" r="1.29" fill="#e2e8f0" opacity="0.74" />
  <circle cx="101.59" cy="199" r="0.9" fill="#e2e8f0" opacity="0.28" />
  <circle cx="388.61" cy="130.11" r="2.07" fill="#e2e8f0" opacity="0.38" />
  <circle cx="128.89" cy="96.22" r="1.48" fill="#e2e8f0" opacity="0.38" />
  <circle cx="145.64" cy="16.36" r="1.09" fill="#e2e8f0" opacity="0.33" />
  <circle cx="248.14" cy="207.69" r="1.95" fill="#e2e8f0" opacity="0.75" />
  <circle cx="309.42" cy="205.73" r="0.99" fill="#e2e8f0" opacity="0.67" />
  <circle cx="463.21" cy="246.03" r="1.18" fill="#e2e8f0" opacity="0.36" />
  <circle cx="187.51" cy="82.95" r="0.72" fill="#e2e8f0" opacity="0.46" />
  <circle cx="2.48" cy="133.91" r="0.86" fill="#e2e8f0" opacity="0.42" />
  <circle cx="29.95" cy="249.85" r="1.86" fill="#e2e8f0" opacity="0.38" />
  <circle cx="342.24" cy="225.2" r="1.79" fill="#e2e8f0" opacity="0.36" />
  <circle cx="467.65" cy="223.12" r="1.57" fill="#e2e8f0" opacity="0.33" />
  <circle cx="340.15" cy="104.33" r="1.69" fill="#e2e8f0" opacity="0.72" />
  <circle cx="300.85" cy="210.23" r="2.09" fill="#e2e8f0" opacity="0.32" />
  <circle cx="278.64" cy="213.72" r="0.66" fill="#e2e8f0" opacity="0.51" />
  <circle cx="317.57" cy="213.38" r="0.85" fill="#e2e8f0" opacity="0.58" />
  <circle cx="418.4" cy="59.34" r="0.71" fill="#e2e8f0" opacity="0.44" />
  <circle cx="182" cy="211.65" r="1.67" fill="#e2e8f0" opacity="0.57" />
  <circle cx="301.78" cy="244.39" r="0.89" fill="#e2e8f0" opacity="0.65" />
  <circle cx="392.99" cy="171.29" r="2.07" fill="#e2e8f0" opacity="0.56" />
  <circle cx="246.21" cy="81.16" r="1.52" fill="#e2e8f0" opacity="0.47" />
  <circle cx="192.48" cy="134.02" r="1.69" fill="#e2e8f0" opacity="0.38" />
  <circle cx="227.72" cy="30.92" r="0.96" fill="#e2e8f0" opacity="0.26" />
  <circle cx="63.88" cy="133.61" r="1.73" fill="#e2e8f0" opacity="0.33" />
  <circle cx="474.27" cy="222.02" r="1.6" fill="#e2e8f0" opacity="0.45" />
  <circle cx="180.59" cy="190.48" r="1.54" fill="#e2e8f0" opacity="0.77" />
  <circle cx="409.27" cy="46.05" r="0.79" fill="#e2e8f0" opacity="0.47" />
  <circle cx="84.39" cy="134.44" r="1.34" fill="#e2e8f0" opacity="0.64" />
  <circle cx="264.98" cy="82.19" r="1.47" fill="#e2e8f0" opacity="0.29" />
  <circle cx="73.88" cy="5.57" r="1.92" fill="#e2e8f0" opacity="0.65" />
  <circle cx="85.95" cy="99.65" r="1.86" fill="#e2e8f0" opacity="0.76" />
  <circle cx="462.92" cy="33.27" r="1.56" fill="#e2e8f0" opacity="0.56" />
  <circle cx="442.47" cy="138.21" r="1.72" fill="#e2e8f0" opacity="0.63" />
  <circle cx="149.08" cy="193.33" r="1.95" fill="#e2e8f0" opacity="0.5" />
  <circle cx="54" cy="166.93" r="1.27" fill="#e2e8f0" opacity="0.47" />
  <circle cx="252.06" cy="93.2" r="0.77" fill="#e2e8f0" opacity="0.72" />
  <circle cx="402.6" cy="70.95" r="1.62" fill="#e2e8f0" opacity="0.57" />
  <circle cx="342.15" cy="185.4" r="0.79" fill="#e2e8f0" opacity="0.63" />
  <circle cx="56.37" cy="216.45" r="0.87" fill="#e2e8f0" opacity="0.31" />
  <circle cx="218.64" cy="58.99" r="1.17" fill="#e2e8f0" opacity="0.44" />
  <circle cx="302.92" cy="93.73" r="0.75" fill="#e2e8f0" opacity="0.77" />
  <circle cx="38.29" cy="59.21" r="0.73" fill="#e2e8f0" opacity="0.58" />
  <circle cx="12.75" cy="38.35" r="1.36" fill="#e2e8f0" opacity="0.63" />
  <circle cx="233.71" cy="235.23" r="1.4" fill="#e2e8f0" opacity="0.38" />
  <circle cx="372.72" cy="30.49" r="2.04" fill="#e2e8f0" opacity="0.72" />
  <circle cx="261.88" cy="116.03" r="1.24" fill="#e2e8f0" opacity="0.59" />
  <circle cx="289.51" cy="72.39" r="0.82" fill="#e2e8f0" opacity="0.27" />
  <circle cx="22.52" cy="64.43" r="1.07" fill="#e2e8f0" opacity="0.78" />
  <circle cx="223.01" cy="143.88" r="1.42" fill="#e2e8f0" opacity="0.74" />
  <circle cx="106.56" cy="209.17" r="0.63" fill="#e2e8f0" opacity="0.48" />
  <circle cx="49.79" cy="236.13" r="0.89" fill="#e2e8f0" opacity="0.75" />
  <circle cx="394.56" cy="205.2" r="0.92" fill="#e2e8f0" opacity="0.27" />
  <circle cx="76.51" cy="213.41" r="1.35" fill="#e2e8f0" opacity="0.28" />
  <circle cx="365.16" cy="72.04" r="2.09" fill="#e2e8f0" opacity="0.54" />
  <circle cx="403.4" cy="3.06" r="0.79" fill="#e2e8f0" opacity="0.78" />
  <circle cx="153.52" cy="110.3" r="1.39" fill="#e2e8f0" opacity="0.7" />
  <circle cx="77.65" cy="113.54" r="1.97" fill="#e2e8f0" opacity="0.52" />
  <circle cx="439.75" cy="146.31" r="1.8" fill="#e2e8f0" opacity="0.45" />
  <circle cx="356.9" cy="230.66" r="1.95" fill="#e2e8f0" opacity="0.48" />
  <circle cx="207.33" cy="104.83" r="1.18" fill="#e2e8f0" opacity="0.46" />
  <circle cx="82.6" cy="141.84" r="1.17" fill="#e2e8f0" opacity="0.5" />
  <circle cx="51.58" cy="160.02" r="1.05" fill="#e2e8f0" opacity="0.71" />
  <circle cx="443.55" cy="238.6" r="0.62" fill="#e2e8f0" opacity="0.73" />
  <circle cx="478.1" cy="214.33" r="1.92" fill="#e2e8f0" opacity="0.4" />
  <circle cx="409.24" cy="97.1" r="0.68" fill="#e2e8f0" opacity="0.76" />
  <circle cx="471.17" cy="205.72" r="1.79" fill="#e2e8f0" opacity="0.44" />
  <circle cx="113.35" cy="136.83" r="1.42" fill="#e2e8f0" opacity="0.37" />
  <circle cx="172.22" cy="242.88" r="0.67" fill="#e2e8f0" opacity="0.45" />
  <circle cx="187.16" cy="107.44" r="1.66" fill="#e2e8f0" opacity="0.6" />
  <circle cx="468.23" cy="68.59" r="0.75" fill="#e2e8f0" opacity="0.5" />
  <circle cx="403" cy="153.69" r="0.96" fill="#e2e8f0" opacity="0.46" />
  <circle cx="450.23" cy="101.27" r="2.1" fill="#e2e8f0" opacity="0.6" />
  <circle cx="27.68" cy="208.47" r="1.83" fill="#e2e8f0" opacity="0.59" />
  <circle cx="421.69" cy="54.56" r="1.53" fill="#e2e8f0" opacity="0.65" />
  <circle cx="365.93" cy="214.06" r="1.44" fill="#e2e8f0" opacity="0.31" />
  <circle cx="376.95" cy="135.11" r="2.02" fill="#e2e8f0" opacity="0.27" />
  <circle cx="373.84" cy="171.39" r="1.51" fill="#e2e8f0" opacity="0.42" />
  <circle cx="189.7" cy="68.43" r="1.2" fill="#e2e8f0" opacity="0.62" />
  <g>
    <line x1="104" y1="156" x2="148" y2="134" stroke="#7dd3fc" stroke-opacity="0.55" stroke-width="1.6" stroke-linecap="round" />
    <line x1="148" y1="134" x2="196" y2="130" stroke="#7dd3fc" stroke-opacity="0.55" stroke-width="1.6" stroke-linecap="round" />
    <line x1="196" y1="130" x2="234" y2="152" stroke="#7dd3fc" stroke-opacity="0.55" stroke-width="1.6" stroke-linecap="round" />
    <line x1="234" y1="152" x2="272" y2="142" stroke="#7dd3fc" stroke-opacity="0.55" stroke-width="1.6" stroke-linecap="round" />
    <line x1="272" y1="142" x2="312" y2="112" stroke="#7dd3fc" stroke-opacity="0.55" stroke-width="1.6" stroke-linecap="round" />
    <line x1="312" y1="112" x2="356" y2="122" stroke="#7dd3fc" stroke-opacity="0.55" stroke-width="1.6" stroke-linecap="round" />
    <g filter="url(#starGlow)" opacity="0.7"><circle cx="104" cy="156" r="4.6" fill="#f8fafc" /><circle cx="148" cy="134" r="3.6" fill="#f8fafc" /><circle cx="196" cy="130" r="3.6" fill="#f8fafc" /><circle cx="234" cy="152" r="3.6" fill="#f8fafc" /><circle cx="272" cy="142" r="3.6" fill="#f8fafc" /><circle cx="312" cy="112" r="3.6" fill="#f8fafc" /><circle cx="356" cy="122" r="4.6" fill="#f8fafc" /></g>
    <circle cx="104" cy="156" r="4.6" fill="#f8fafc" />
    <circle cx="148" cy="134" r="3.6" fill="#f8fafc" />
    <circle cx="196" cy="130" r="3.6" fill="#f8fafc" />
    <circle cx="234" cy="152" r="3.6" fill="#f8fafc" />
    <circle cx="272" cy="142" r="3.6" fill="#f8fafc" />
    <circle cx="312" cy="112" r="3.6" fill="#f8fafc" />
    <circle cx="356" cy="122" r="4.6" fill="#f8fafc" />
  </g>
  <ellipse cx="240" cy="320" rx="300" ry="110" fill="url(#cityGlow)" />
  <rect x="-10" y="243.66" width="33.75" height="76.34" rx="2" fill="#04091a" />
  <rect x="33.24" y="236.33" width="27.3" height="83.67" rx="2" fill="#04091a" />
  <rect x="69.2" y="236.68" width="44.11" height="83.32" rx="2" fill="#04091a" />
  <rect x="120.03" y="217.09" width="47.84" height="102.91" rx="2" fill="#04091a" />
  <rect x="173.71" y="207.23" width="41.64" height="112.77" rx="2" fill="#04091a" />
  <rect x="222.2" y="213.2" width="29.78" height="106.8" rx="2" fill="#04091a" />
  <rect x="255.35" y="200.17" width="34.05" height="119.83" rx="2" fill="#04091a" />
  <rect x="296.95" y="212.81" width="50.7" height="107.19" rx="2" fill="#04091a" />
  <rect x="353.05" y="201.69" width="48.15" height="118.31" rx="2" fill="#04091a" />
  <rect x="411.18" y="242.31" width="36.15" height="77.69" rx="2" fill="#04091a" />
  <rect x="455.82" y="196.9" width="39.96" height="123.1" rx="2" fill="#04091a" />
  <rect x="13.21" y="249.66" width="3" height="4" fill="#fbbf24" opacity="0.43" />
  <rect x="43.2" y="242.33" width="3" height="4" fill="#fbbf24" opacity="0.41" />
  <rect x="244.31" y="219.2" width="3" height="4" fill="#fbbf24" opacity="0.49" />
  <rect x="238.45" y="234.2" width="3" height="4" fill="#fbbf24" opacity="0.7" />
  <rect x="274.43" y="236.17" width="3" height="4" fill="#fbbf24" opacity="0.55" />
  <rect x="364.24" y="207.69" width="3" height="4" fill="#fbbf24" opacity="0.46" />
  <rect x="382.65" y="237.69" width="3" height="4" fill="#fbbf24" opacity="0.67" />
  <rect x="481.95" y="202.9" width="3" height="4" fill="#fbbf24" opacity="0.38" />
  <rect x="487.61" y="217.9" width="3" height="4" fill="#fbbf24" opacity="0.53" />
  <rect x="480.67" y="232.9" width="3" height="4" fill="#fbbf24" opacity="0.73" />
  <rect x="465.59" y="247.9" width="3" height="4" fill="#fbbf24" opacity="0.75" />
</svg>
