<svg xmlns="http://www.w3.org/2000/svg" viewBox="0 0 128 128">
  <rect width="128" height="128" rx="18" fill="#eef8ee"/>
  <path fill="#539e43" d="M64 12 107 37v54l-43 25-43-25V37l43-25Z"/>
  <path fill="#6cc24a" d="M64 23 97 42v39l-33 19-33-19V42l33-19Z"/>
  <path fill="#fff" d="M39 77c4.2 2.8 9.2 4.2 15 4.2 7.2 0 11.4-3.1 11.4-8.3 0-4.8-3-7-10.2-8.1l-4-.6c-2.4-.4-3.5-1.2-3.5-2.7 0-1.8 1.7-2.9 4.8-2.9 3.1 0 6.4.8 9.5 2.3l2.5-6.3c-3.3-1.8-7.3-2.8-11.8-2.8-7.4 0-12.1 3.6-12.1 9.5 0 5 3.4 7.6 10.3 8.6l4 .6c2.4.4 3.3 1.1 3.3 2.6 0 1.7-1.6 2.7-4.6 2.7-4 0-7.8-1.1-11.3-3.4L39 77Zm31-24.6h7.3V73c0 5.2-2.9 8.2-8.2 8.2-2.6 0-5-.7-7.1-2l2.5-6.2c1 .7 2.1 1 3.2 1 1.5 0 2.3-.8 2.3-2.5V52.4Z"/>
</svg>
